<svg width="25" height="24" viewBox="0 0 25 24" fill="none" xmlns="http://www.w3.org/2000/svg">
<circle cx="12.3334" cy="12" r="12" fill="white"/>
<g clip-path="url(#clip0_77_295)">
<path d="M23.8334 12C23.8334 18.3513 18.6846 23.5 12.3334 23.5C5.98211 23.5 0.833374 18.3513 0.833374 12C0.833374 5.64873 5.98211 0.5 12.3334 0.5C18.6846 0.5 23.8334 5.64873 23.8334 12Z" fill="#5365ED" stroke="white"/>
<g clip-path="url(#clip1_77_295)">
<path d="M16.8159 8.33593C18.2778 10.4853 18.9998 12.9098 18.7299 15.701C18.7288 15.7128 18.7226 15.7236 18.7129 15.7307C17.6059 16.5436 16.5332 17.037 15.4757 17.3641C15.4675 17.3666 15.4586 17.3665 15.4505 17.3637C15.4423 17.361 15.4353 17.3558 15.4302 17.3488C15.1859 17.0088 14.9639 16.6504 14.7694 16.2741C14.7582 16.2519 14.7684 16.2252 14.7914 16.2165C15.144 16.0836 15.4792 15.9244 15.8017 15.7359C15.8271 15.721 15.8287 15.6846 15.8053 15.6671C15.7368 15.6163 15.669 15.5629 15.6042 15.5095C15.592 15.4997 15.5757 15.4977 15.5619 15.5044C13.4683 16.4711 11.1749 16.4711 9.05654 15.5044C9.04279 15.4982 9.02644 15.5003 9.01463 15.51C8.94991 15.5634 8.88195 15.6163 8.81415 15.6671C8.79069 15.6846 8.79263 15.721 8.8182 15.7359C9.14068 15.9208 9.47594 16.0836 9.82803 16.2171C9.85084 16.2258 9.86168 16.2519 9.85036 16.2741C9.66007 16.6509 9.43808 17.0093 9.18922 17.3493C9.17838 17.363 9.16058 17.3693 9.14375 17.3641C8.09121 17.037 7.0186 16.5436 5.91152 15.7307C5.9023 15.7236 5.89567 15.7123 5.8947 15.7005C5.66914 13.2862 6.12883 10.8416 7.80691 8.33545C7.81096 8.32881 7.81711 8.32364 7.82423 8.32056C8.64992 7.94162 9.53451 7.66283 10.4591 7.50361C10.4759 7.50102 10.4927 7.50879 10.5015 7.52368C10.6157 7.72593 10.7463 7.9853 10.8346 8.19727C11.8092 8.04841 12.7989 8.04841 13.7939 8.19727C13.8822 7.98983 14.0083 7.72593 14.122 7.52368C14.1261 7.51629 14.1324 7.51037 14.14 7.50677C14.1476 7.50317 14.1561 7.50206 14.1644 7.50361C15.0895 7.66331 15.974 7.9421 16.7991 8.32056C16.8064 8.32364 16.8124 8.32881 16.8159 8.33593ZM11.3301 12.9263C11.3403 12.2126 10.8199 11.622 10.1667 11.622C9.51882 11.622 9.00347 12.2074 9.00347 12.9263C9.00347 13.6451 9.52901 14.2305 10.1667 14.2305C10.8147 14.2305 11.3301 13.6451 11.3301 12.9263ZM15.6312 12.9263C15.6414 12.2126 15.121 11.622 14.468 11.622C13.8199 11.622 13.3046 12.2074 13.3046 12.9263C13.3046 13.6451 13.8301 14.2305 14.468 14.2305C15.121 14.2305 15.6312 13.6451 15.6312 12.9263Z" fill="white"/>
</g>
</g>
<defs>
<clipPath id="clip0_77_295">
<rect width="24" height="24" fill="white" transform="translate(0.333374)"/>
</clipPath>
<clipPath id="clip1_77_295">
<rect width="13.5" height="9.8712" fill="white" transform="translate(5.58337 7.5)"/>
</clipPath>
</defs>
</svg>
