<svg width="25" height="24" viewBox="0 0 25 24" fill="none" xmlns="http://www.w3.org/2000/svg">
<circle cx="12.5" cy="12" r="12" fill="white"/>
<g clip-path="url(#clip0_77_288)">
<path d="M24 12C24 18.3513 18.8513 23.5 12.5 23.5C6.14873 23.5 1 18.3513 1 12C1 5.64873 6.14873 0.5 12.5 0.5C18.8513 0.5 24 5.64873 24 12Z" fill="#34AADF" stroke="white"/>
<path d="M5.49419 11.8959C5.49419 11.8959 11.4941 9.4335 13.575 8.56642C14.3727 8.21962 17.0779 7.10976 17.0779 7.10976C17.0779 7.10976 18.3265 6.62424 18.2224 7.80341C18.1877 8.28898 17.9103 9.98838 17.6328 11.8265C17.2166 14.4277 16.7658 17.2716 16.7658 17.2716C16.7658 17.2716 16.6964 18.0694 16.1068 18.2081C15.5172 18.3468 14.5461 17.7226 14.3727 17.5838C14.234 17.4798 11.7716 15.919 10.8699 15.156C10.6271 14.948 10.3496 14.5318 10.9045 14.0462C12.1531 12.9017 13.6444 11.4797 14.5461 10.578C14.9623 10.1618 15.3785 9.19071 13.6444 10.3699C11.182 12.0693 8.75428 13.6647 8.75428 13.6647C8.75428 13.6647 8.19936 14.0115 7.15891 13.6994C6.11843 13.3873 4.90456 12.9711 4.90456 12.9711C4.90456 12.9711 4.07225 12.4508 5.49419 11.8959Z" fill="white"/>
</g>
<defs>
<clipPath id="clip0_77_288">
<rect width="24" height="24" fill="white" transform="translate(0.5)"/>
</clipPath>
</defs>
</svg>
