<svg width="25" height="24" viewBox="0 0 25 24" fill="none" xmlns="http://www.w3.org/2000/svg">
<circle cx="12.6666" cy="12" r="11.5" fill="#1DA1F2" stroke="white"/>
<g clip-path="url(#clip0_77_304)">
<path d="M9.69874 18.499C15.7368 18.499 19.0388 13.497 19.0388 9.15937C19.0388 9.01731 19.0359 8.87591 19.0295 8.73509C19.672 8.27021 20.2265 7.69462 20.667 7.03529C20.0788 7.29678 19.4458 7.47277 18.7818 7.55212C19.4596 7.14575 19.9799 6.50286 20.2254 5.73654C19.581 6.11879 18.876 6.38825 18.1409 6.53332C17.5418 5.89527 16.689 5.49622 15.7447 5.49622C13.9319 5.49622 12.4618 6.96625 12.4618 8.77829C12.4618 9.03591 12.4907 9.28641 12.547 9.52676C9.81867 9.38949 7.39941 8.08329 5.78031 6.09714C5.48869 6.59809 5.33531 7.16742 5.33582 7.747C5.33582 8.88585 5.91533 9.8912 6.79664 10.4794C6.27534 10.4635 5.76548 10.3227 5.30993 10.0688C5.30944 10.0826 5.30944 10.096 5.30944 10.1108C5.30944 11.7004 6.44096 13.0277 7.94302 13.3285C7.66091 13.4053 7.36981 13.4442 7.07742 13.444C6.86627 13.444 6.66048 13.4232 6.46047 13.3848C6.8784 14.6891 8.09024 15.6382 9.52703 15.6647C8.40348 16.5453 6.98815 17.0698 5.4499 17.0698C5.18822 17.07 4.92676 17.0548 4.66687 17.0243C6.11969 17.9555 7.84477 18.4988 9.6989 18.4988" fill="white"/>
</g>
<defs>
<clipPath id="clip0_77_304">
<rect width="16" height="13" fill="white" transform="translate(4.66565 5.49902)"/>
</clipPath>
</defs>
</svg>
