<svg width="24" height="24" viewBox="0 0 24 24" fill="none" xmlns="http://www.w3.org/2000/svg">
<circle cx="12" cy="12" r="12" fill="url(#paint0_linear_8827_55469)"/>
<path d="M8.24023 11.1998C8.24023 13.3187 9.92533 15.0422 11.997 15.0422C14.0687 15.0422 15.7538 13.3187 15.7538 11.1998C15.7538 9.10119 14.1183 7.40811 12.0763 7.35742H11.9177C9.88568 7.40811 8.24023 9.11133 8.24023 11.1998Z" fill="white"/>
<path d="M17.3196 12.4137L20.1149 7.45616C20.5015 6.7769 20.0158 5.92529 19.2525 5.92529H13.7115C13.6322 5.92529 13.5728 5.98612 13.5728 6.06723C13.5728 6.10778 13.5926 6.13819 13.6124 6.16861C13.6223 6.17875 13.6421 6.18889 13.662 6.19902C15.7336 6.89856 17.1809 8.8755 17.1809 11.2174C17.1809 11.2174 17.1709 11.6128 17.0718 12.3326C17.0619 12.4137 17.1313 12.4746 17.2106 12.4746C17.2502 12.4644 17.2899 12.4441 17.3196 12.4137Z" fill="white"/>
<path d="M6.79245 12.4644C6.87175 12.4644 6.95105 12.4036 6.93123 12.3225C6.8321 11.8257 6.82219 11.2073 6.82219 11.2073C6.82219 8.86537 8.27931 6.89856 10.3411 6.19902C10.3609 6.18889 10.3708 6.17875 10.3906 6.16861C10.4204 6.13819 10.4303 6.10778 10.4303 6.06723C10.4303 5.98612 10.3708 5.92529 10.2915 5.92529H4.75051C3.97735 5.92529 3.50155 6.7769 3.88814 7.45616L6.68342 12.4137C6.70324 12.4441 6.7528 12.4644 6.79245 12.4644Z" fill="white"/>
<path d="M15.6432 15.1919C15.6035 15.121 15.5044 15.0804 15.4549 15.1412C15.1575 15.4454 14.5727 15.7901 14.5727 15.7901C12.5803 16.956 10.1815 16.6417 8.56577 15.1615C8.55586 15.1514 8.53603 15.1412 8.51621 15.1311C8.47656 15.121 8.44682 15.121 8.40717 15.1412C8.33779 15.1818 8.31796 15.2629 8.35761 15.3339L11.1132 20.261C11.4998 20.9403 12.4514 20.9504 12.8479 20.2712L15.663 15.3237C15.663 15.2832 15.663 15.2325 15.6432 15.1919Z" fill="white"/>
<defs>
<linearGradient id="paint0_linear_8827_55469" x1="0" y1="0" x2="22.7093" y2="4.25876" gradientUnits="userSpaceOnUse">
<stop offset="0.244792" stop-color="#00FFFE"/>
<stop offset="1" stop-color="#00A1FA"/>
</linearGradient>
</defs>
</svg>
